<mxfile host="app.diagrams.net" modified="2021-04-26T12:33:41.982Z" agent="5.0 (Windows NT 10.0; Win64; x64) AppleWebKit/537.36 (KHTML, like Gecko) Chrome/90.0.4430.85 Safari/537.36" etag="iB8RRXAEVOJjyIeluoCt" version="14.6.6" type="github">
  <diagram id="Stn6hoBpvlw10g-993A5" name="Page-1">
    <mxGraphModel dx="1209" dy="643" grid="0" gridSize="10" guides="1" tooltips="1" connect="1" arrows="1" fold="1" page="1" pageScale="1" pageWidth="827" pageHeight="1169" math="0" shadow="0">
      <root>
        <mxCell id="0" />
        <mxCell id="1" parent="0" />
        <mxCell id="32j9mx1kJHiMgZ-tfhbt-1" value="N00" style="ellipse;whiteSpace=wrap;html=1;aspect=fixed;" vertex="1" parent="1">
          <mxGeometry x="140" y="190" width="80" height="80" as="geometry" />
        </mxCell>
        <mxCell id="32j9mx1kJHiMgZ-tfhbt-2" value="N01" style="ellipse;whiteSpace=wrap;html=1;aspect=fixed;" vertex="1" parent="1">
          <mxGeometry x="374" y="190" width="80" height="80" as="geometry" />
        </mxCell>
        <mxCell id="32j9mx1kJHiMgZ-tfhbt-3" value="N10" style="ellipse;whiteSpace=wrap;html=1;aspect=fixed;" vertex="1" parent="1">
          <mxGeometry x="140" y="390" width="80" height="80" as="geometry" />
        </mxCell>
        <mxCell id="32j9mx1kJHiMgZ-tfhbt-4" value="N11" style="ellipse;whiteSpace=wrap;html=1;aspect=fixed;" vertex="1" parent="1">
          <mxGeometry x="374" y="390" width="80" height="80" as="geometry" />
        </mxCell>
        <mxCell id="32j9mx1kJHiMgZ-tfhbt-5" value="" style="shape=flexArrow;endArrow=classic;startArrow=classic;html=1;" edge="1" parent="1" source="32j9mx1kJHiMgZ-tfhbt-1" target="32j9mx1kJHiMgZ-tfhbt-2">
          <mxGeometry width="100" height="100" relative="1" as="geometry">
            <mxPoint x="360" y="380" as="sourcePoint" />
            <mxPoint x="460" y="280" as="targetPoint" />
          </mxGeometry>
        </mxCell>
        <mxCell id="32j9mx1kJHiMgZ-tfhbt-6" value="" style="shape=flexArrow;endArrow=classic;startArrow=classic;html=1;" edge="1" parent="1" source="32j9mx1kJHiMgZ-tfhbt-1" target="32j9mx1kJHiMgZ-tfhbt-3">
          <mxGeometry width="100" height="100" relative="1" as="geometry">
            <mxPoint x="210" y="320" as="sourcePoint" />
            <mxPoint x="370" y="320" as="targetPoint" />
          </mxGeometry>
        </mxCell>
        <mxCell id="32j9mx1kJHiMgZ-tfhbt-7" value="" style="shape=flexArrow;endArrow=classic;startArrow=classic;html=1;" edge="1" parent="1" source="32j9mx1kJHiMgZ-tfhbt-3" target="32j9mx1kJHiMgZ-tfhbt-4">
          <mxGeometry width="100" height="100" relative="1" as="geometry">
            <mxPoint x="190" y="280" as="sourcePoint" />
            <mxPoint x="190" y="400" as="targetPoint" />
          </mxGeometry>
        </mxCell>
        <mxCell id="32j9mx1kJHiMgZ-tfhbt-8" value="" style="shape=flexArrow;endArrow=classic;startArrow=classic;html=1;" edge="1" parent="1" source="32j9mx1kJHiMgZ-tfhbt-2" target="32j9mx1kJHiMgZ-tfhbt-4">
          <mxGeometry width="100" height="100" relative="1" as="geometry">
            <mxPoint x="400" y="310" as="sourcePoint" />
            <mxPoint x="554" y="310" as="targetPoint" />
          </mxGeometry>
        </mxCell>
      </root>
    </mxGraphModel>
  </diagram>
</mxfile>
